                                                                        S      1
,,11HAiguille v9,11HAiguille v9,7Hunknown,7Hunknown,32,38,7,99,15,,1.,2,G      1
2HMM,1,0.08,15H20191218.163218,0.01,10000.,7Hunknown,7Hunknown,11,0,15H2G      2
0191218.152404;                                                         G      3
     186       1                                                00000000D      1
     186            -185       1       0                               0D      2
     186       2                                                00000000D      3
     186            -185       1       0                               0D      4
     514       3                                                00010000D      5
     514                       1       1                               0D      6
     514       4                                                00010000D      7
     514                       1       1                               0D      8
     510       5                                                00010000D      9
     510            -185       1       1                               0D     10
     510       6                                                00010000D     11
     510            -185       1       1                               0D     12
     510       7                                                00010000D     13
     510            -185       1       1                               0D     14
     510       8                                                00010000D     15
     510            -185       1       1                               0D     16
     510       9                                                00010000D     17
     510            -185       1       1                               0D     18
     510      10                                                00010000D     19
     510            -185       1       1                               0D     20
     510      11                                                00010000D     21
     510            -185       1       1                               0D     22
     510      12                                                00010000D     23
     510            -185       1       1                               0D     24
     510      13                                                00010000D     25
     510            -185       1       1                               0D     26
     510      14                                                00010000D     27
     510            -185       1       1                               0D     28
     510      15                                                00010000D     29
     510            -185       1       1                               0D     30
     510      16                                                00010000D     31
     510            -185       1       1                               0D     32
     510      17                                                00010000D     33
     510            -185       1       1                               0D     34
     510      18                                                00010000D     35
     510            -185       1       1                               0D     36
     510      19                                                00010000D     37
     510            -185       1       1                               0D     38
     508      20                                                00010000D     39
     508                       1       1                               0D     40
     508      21                                                00010000D     41
     508                       1       1                               0D     42
     508      22                                                00010000D     43
     508                       1       1                               0D     44
     508      23                                                00010000D     45
     508                       1       1                               0D     46
     508      24                                                00010000D     47
     508                       1       1                               0D     48
     508      25                                                00010000D     49
     508                       1       1                               0D     50
     508      26                                                00010000D     51
     508                       2       1                               0D     52
     508      28                                                00010000D     53
     508                       1       1                               0D     54
     508      29                                                00010000D     55
     508                       2       1                               0D     56
     508      31                                                00010000D     57
     508                       1       1                               0D     58
     508      32                                                00010000D     59
     508                       1       1                               0D     60
     508      33                                                00010000D     61
     508                       1       1                               0D     62
     508      34                                                00010000D     63
     508                       1       1                               0D     64
     508      35                                                00010000D     65
     508                       1       1                               0D     66
     508      36                                                00010000D     67
     508                       1       1                               0D     68
     508      37                                                00010000D     69
     508                       1       1                               0D     70
     508      38                                                00010000D     71
     508                       1       1                               0D     72
     508      39                                                00010000D     73
     508                       1       1                               0D     74
     508      40                                                00010000D     75
     508                       1       1                               0D     76
     126      41                                                00010000D     77
     126       0              12       0                               0D     78
     126      53                                                00010000D     79
     126       0               3       0                               0D     80
     126      56                                                00010000D     81
     126       0              12       0                               0D     82
     126      68                                                00010000D     83
     126       0               2       0                               0D     84
     126      70                                                00010000D     85
     126       0               2       0                               0D     86
     126      72                                                00010000D     87
     126       0               2       0                               0D     88
     126      74                                                00010000D     89
     126       0               2       0                               0D     90
     126      76                                                00010000D     91
     126       0               2       0                               0D     92
     126      78                                                00010000D     93
     126       0               2       0                               0D     94
     126      80                                                00010000D     95
     126       0               2       0                               0D     96
     126      82                                                00010000D     97
     126       0               3       0                               0D     98
     126      85                                                00010000D     99
     126       0               3       0                               0D    100
     126      88                                                00010000D    101
     126       0               2       0                               0D    102
     126      90                                                00010000D    103
     126       0               7       0                               0D    104
     126      97                                                00010000D    105
     126       0               7       0                               0D    106
     126     104                                                00010000D    107
     126       0               2       0                               0D    108
     126     106                                                00010000D    109
     126       0               2       0                               0D    110
     126     108                                                00010000D    111
     126       0               2       0                               0D    112
     126     110                                                00010000D    113
     126       0              12       0                               0D    114
     126     122                                                00010000D    115
     126       0               3       0                               0D    116
     126     125                                                00010000D    117
     126       0              12       0                               0D    118
     126     137                                                00010000D    119
     126       0               3       0                               0D    120
     126     140                                                00010000D    121
     126       0               3       0                               0D    122
     126     143                                                00010000D    123
     126       0               3       0                               0D    124
     126     146                                                00010000D    125
     126       0               3       0                               0D    126
     126     149                                                00010000D    127
     126       0               3       0                               0D    128
     126     152                                                00010000D    129
     126       0               3       0                               0D    130
     126     155                                                00010000D    131
     126       0               3       0                               0D    132
     126     158                                                00010000D    133
     126       0               3       0                               0D    134
     126     161                                                00010000D    135
     126       0               3       0                               0D    136
     126     164                                                00010000D    137
     126       0               3       0                               0D    138
     126     167                                                00010000D    139
     126       0               8       0                               0D    140
     126     175                                                00010000D    141
     126       0               8       0                               0D    142
     128     183                                                00010000D    143
     128       0    -185      20       0                               0D    144
     128     203                                                00010000D    145
     128       0    -185       4       0                               0D    146
     128     207                                                00010000D    147
     128       0    -185       5       0                               0D    148
     128     212                                                00010000D    149
     128       0    -185       6       0                               0D    150
     128     218                                                00010000D    151
     128       0    -185      11       0                               0D    152
     128     229                                                00010000D    153
     128       0    -185       4       0                               0D    154
     128     233                                                00010000D    155
     128       0    -185       7       0                               0D    156
     128     240                                                00010000D    157
     128       0    -185       7       0                               0D    158
     128     247                                                00010000D    159
     128       0    -185      20       0                               0D    160
     128     267                                                00010000D    161
     128       0    -185       5       0                               0D    162
     128     272                                                00010000D    163
     128       0    -185       5       0                               0D    164
     128     277                                                00010000D    165
     128       0    -185       5       0                               0D    166
     128     282                                                00010000D    167
     128       0    -185      13       0                               0D    168
     128     295                                                00010000D    169
     128       0    -185       7       0                               0D    170
     128     302                                                00010000D    171
     128       0    -185       7       0                               0D    172
     502     309                                                00010000D    173
     502                       7       1                               0D    174
     502     316                                                00010000D    175
     502                       7       1                               0D    176
     504     323                                                00010001D    177
     504                       5       1                               0D    178
     504     328                                                00010001D    179
     504                       4       1                               0D    180
     406     332                                                00000000D    181
     406                       1      15                               0D    182
     406     333                                                00000000D    183
     406                       1      15                               0D    184
     314     334                                                00000200D    185
     314                       2       0                               0D    186
     314     336                                                00000200D    187
     314                       2       0                               0D    188
186,5,1,0,0,1,181;                                                     1P      1
186,7,1,0,0,1,183;                                                     3P      2
514,8,9,1,11,1,13,1,15,1,17,1,19,1,21,1,23,1;                          5P      3
514,7,25,1,27,1,29,1,31,1,33,1,35,1,37,1;                              7P      4
510,143,1,1,39;                                                        9P      5
510,145,1,1,41;                                                       11P      6
510,147,1,1,43;                                                       13P      7
510,149,1,1,45;                                                       15P      8
510,151,1,1,47;                                                       17P      9
510,153,1,1,49;                                                       19P     10
510,155,2,1,51,53;                                                    21P     11
510,157,2,1,55,57;                                                    23P     12
510,159,1,1,59;                                                       25P     13
510,161,1,1,61;                                                       27P     14
510,163,1,1,63;                                                       29P     15
510,165,1,1,65;                                                       31P     16
510,167,1,1,67;                                                       33P     17
510,169,2,1,69,71;                                                    35P     18
510,171,2,1,73,75;                                                    37P     19
508,4,0,177,1,0,0,0,177,2,1,0,0,177,3,1,0,0,177,2,0,0;                39P     20
508,4,0,177,4,0,0,0,177,5,1,0,0,177,6,0,0,0,177,7,0,0;                41P     21
508,4,0,177,8,0,0,0,177,7,1,0,0,177,9,0,0,0,177,10,0,0;               43P     22
508,4,0,177,11,1,0,0,177,10,1,0,0,177,12,0,0,0,177,13,0,0;            45P     23
508,4,0,177,14,1,0,0,177,13,1,0,0,177,15,0,0,0,177,16,0,0;            47P     24
508,4,0,177,17,0,0,0,177,16,1,0,0,177,18,0,0,0,177,5,0,0;             49P     25
508,5,0,177,18,1,0,0,177,15,1,0,0,177,12,1,0,0,177,9,1,0,0,177,       51P     26
6,1,0;                                                                51P     27
508,1,0,177,1,1,0;                                                    53P     28
508,5,0,177,17,1,0,0,177,4,1,0,0,177,8,1,0,0,177,11,0,0,0,177,        55P     29
14,0,0;                                                               55P     30
508,1,0,177,3,0,0;                                                    57P     31
508,4,0,179,1,0,0,0,179,2,1,0,0,179,3,1,0,0,179,2,0,0;                59P     32
508,4,0,179,4,0,0,0,179,5,1,0,0,179,6,0,0,0,179,7,0,0;                61P     33
508,4,0,179,8,0,0,0,179,7,1,0,0,179,9,0,0,0,179,10,0,0;               63P     34
508,4,0,179,11,0,0,0,179,10,1,0,0,179,12,0,0,0,179,13,0,0;            65P     35
508,4,0,179,14,1,0,0,179,13,1,0,0,179,15,0,0,0,179,5,0,0;             67P     36
508,4,0,179,15,1,0,0,179,12,1,0,0,179,9,1,0,0,179,6,1,0;              69P     37
508,1,0,179,1,1,0;                                                    71P     38
508,4,0,179,14,0,0,0,179,4,1,0,0,179,8,1,0,0,179,11,1,0;              73P     39
508,1,0,179,3,0,0;                                                    75P     40
126,8,2,0,1,0,0,-3.14159265358979,-3.14159265358979,                  77P     41
-3.14159265358979,-1.5707963267949,-1.5707963267949,0.,0.,            77P     42
1.5707963267949,1.5707963267949,3.14159265358979,                     77P     43
3.14159265358979,3.14159265358979,1.,0.707106781186548,1.,            77P     44
0.707106781186547,1.,0.707106781186547,1.,0.707106781186547,1.,       77P     45
-1.78750000139698,1.14981249755582,7.,-1.78750000139698,              77P     46
-0.500187502444178,7.,-3.43750000139698,-0.500187502444178,7.,        77P     47
-5.08750000139698,-0.500187502444178,7.,-5.08750000139698,            77P     48
1.14981249755582,7.,-5.08750000139698,2.79981249755582,7.,            77P     49
-3.43750000139698,2.79981249755582,7.,-1.78750000139698,              77P     50
2.79981249755582,7.,-1.78750000139698,1.14981249755582,7.,            77P     51
-3.14159265358979,3.14159265358979,0.,0.,0.;                          77P     52
126,1,1,0,0,1,0,-1.81818181818182,-1.81818181818182,0.,0.,1.,1.,      79P     53
-1.78750000139698,1.14981249755582,7.,-1.78750000139698,              79P     54
1.14981249755582,4.,-1.81818181818182,0.,0.,0.,0.;                    79P     55
126,8,2,0,1,0,0,-3.14159265358979,-3.14159265358979,                  81P     56
-3.14159265358979,-1.5707963267949,-1.5707963267949,0.,0.,            81P     57
1.5707963267949,1.5707963267949,3.14159265358979,                     81P     58
3.14159265358979,3.14159265358979,1.,0.707106781186548,1.,            81P     59
0.707106781186547,1.,0.707106781186547,1.,0.707106781186547,1.,       81P     60
-1.78750000139698,1.14981249755582,4.,-1.78750000139698,              81P     61
-0.500187502444178,4.,-3.43750000139698,-0.500187502444178,4.,        81P     62
-5.08750000139698,-0.500187502444178,4.,-5.08750000139698,            81P     63
1.14981249755582,4.,-5.08750000139698,2.79981249755582,4.,            81P     64
-3.43750000139698,2.79981249755582,4.,-1.78750000139698,              81P     65
2.79981249755582,4.,-1.78750000139698,1.14981249755582,4.,            81P     66
-3.14159265358979,3.14159265358979,0.,0.,0.;                          81P     67
126,1,1,0,0,1,0,0.,0.,1.25,1.25,1.,1.,46.5,7.3994999897569,4.,        83P     68
46.5,-5.1005000102431,4.,0.,1.25,0.,0.,0.;                            83P     69
126,1,1,0,0,1,0,0.,0.,0.3,0.3,1.,1.,46.5,7.3994999897569,4.,          85P     70
46.5,7.3994999897569,7.,0.,0.3,0.,0.,0.;                              85P     71
126,1,1,0,0,1,0,-1.25,-1.25,0.,0.,1.,1.,46.5,-5.1005000102431,        87P     72
7.,46.5,7.3994999897569,7.,-1.25,0.,0.,0.,0.;                         87P     73
126,1,1,0,0,1,0,0.,0.,0.3,0.3,1.,1.,46.5,-5.1005000102431,4.,         89P     74
46.5,-5.1005000102431,7.,0.,0.3,0.,0.,0.;                             89P     75
126,1,1,0,0,1,0,0.,0.,5.,5.,1.,1.,46.5,-5.1005000102431,4.,-3.5,      91P     76
-5.10050001024311,4.,0.,5.,0.,0.,0.;                                  91P     77
126,1,1,0,0,1,0,-5.,-5.,0.,0.,1.,1.,-3.5,-5.10050001024311,7.,        93P     78
46.5,-5.1005000102431,7.,-5.,0.,0.,0.,0.;                             93P     79
126,1,1,0,0,1,0,0.,0.,0.3,0.3,1.,1.,-3.5,-5.10050001024311,4.,        95P     80
-3.5,-5.10050001024311,7.,0.,0.3,0.,0.,0.;                            95P     81
126,1,1,0,0,1,0,1.24993749844022,1.24993749844022,1.25,1.25,1.,       97P     82
1.,-3.5,-5.09987499464526,4.,-3.5,-5.10050001024311,4.,               97P     83
1.24993749844022,1.25,0.,0.,0.;                                       97P     84
126,1,1,0,0,1,0,1.24993749844022,1.24993749844022,1.25,1.25,1.,       99P     85
1.,-3.5,-5.09987499464526,7.,-3.5,-5.10050001024311,7.,               99P     86
1.24993749844022,1.25,0.,0.,0.;                                       99P     87
126,1,1,0,0,1,0,0.,0.,0.3,0.3,1.,1.,-3.5,-5.09987499464526,4.,       101P     88
-3.5,-5.09987499464526,7.,0.,0.3,0.,0.,0.;                           101P     89
126,4,2,0,0,0,0,-1.56079616034426,-1.56079616034426,                 103P     90
-1.56079616034426,0.,0.,1.56079616034426,1.56079616034426,           103P     91
1.56079616034426,1.,0.710633520098962,1.,0.710633520098962,1.,       103P     92
-3.5,7.3994999897569,4.,-9.68750000139698,7.3376218971441,4.,        103P     93
-9.68750000139698,1.14981249755582,4.,-9.68750000139698,             103P     94
-5.03799690203246,4.,-3.5,-5.09987499464526,4.,                      103P     95
-1.56079616034426,1.56079616034426,0.,0.,0.;                         103P     96
126,4,2,0,0,0,0,-1.56079616034426,-1.56079616034426,                 105P     97
-1.56079616034426,0.,0.,1.56079616034426,1.56079616034426,           105P     98
1.56079616034426,1.,0.710633520098962,1.,0.710633520098962,1.,       105P     99
-3.5,7.3994999897569,7.,-9.68750000139698,7.3376218971441,7.,        105P    100
-9.68750000139698,1.14981249755582,7.,-9.68750000139698,             105P    101
-5.03799690203246,7.,-3.5,-5.09987499464526,7.,                      105P    102
-1.56079616034426,1.56079616034426,0.,0.,0.;                         105P    103
126,1,1,0,0,1,0,0.,0.,0.3,0.3,1.,1.,-3.5,7.3994999897569,4.,         107P    104
-3.5,7.3994999897569,7.,0.,0.3,0.,0.,0.;                             107P    105
126,1,1,0,0,1,0,0.,0.,5.,5.,1.,1.,-3.5,7.3994999897569,4.,46.5,      109P    106
7.3994999897569,4.,0.,5.,0.,0.,0.;                                   109P    107
126,1,1,0,0,1,0,-5.,-5.,0.,0.,1.,1.,46.5,7.3994999897569,7.,         111P    108
-3.5,7.3994999897569,7.,-5.,0.,0.,0.,0.;                             111P    109
126,8,2,0,1,0,0,-3.14159265358979,-3.14159265358979,                 113P    110
-3.14159265358979,-1.5707963267949,-1.5707963267949,0.,0.,           113P    111
1.5707963267949,1.5707963267949,3.14159265358979,                    113P    112
3.14159265358979,3.14159265358979,1.,0.707106781186548,1.,           113P    113
0.707106781186549,1.,0.707106781186549,1.,0.707106781186548,1.,      113P    114
-3.07924707977931,0.00208165289024377,12.,-3.07924707977931,         113P    115
0.602081652890244,12.,-2.47924707977931,0.602081652890244,12.,       113P    116
-1.87924707977931,0.602081652890244,12.,-1.87924707977931,           113P    117
0.0020816528902437,12.,-1.87924707977931,-0.597918347109756,12.,     113P    118
-2.47924707977931,-0.597918347109756,12.,-3.07924707977931,          113P    119
-0.597918347109756,12.,-3.07924707977931,0.00208165289024363,        113P    120
12.,-3.14159265358979,3.14159265358979,0.,0.,0.;                     113P    121
126,1,1,0,0,1,0,-5.,-5.,0.,0.,1.,1.,-3.07924707977931,               115P    122
0.0020816528902437,12.,-3.07924707977931,0.0020816528902437,9.,      115P    123
-5.,0.,0.,0.,0.;                                                     115P    124
126,8,2,0,1,0,0,-3.14159265358979,-3.14159265358979,                 117P    125
-3.14159265358979,-1.5707963267949,-1.5707963267949,0.,0.,           117P    126
1.5707963267949,1.5707963267949,3.14159265358979,                    117P    127
3.14159265358979,3.14159265358979,1.,0.707106781186548,1.,           117P    128
0.707106781186549,1.,0.707106781186549,1.,0.707106781186548,1.,      117P    129
-3.07924707977931,0.00208165289024377,9.,-3.07924707977931,          117P    130
0.602081652890244,9.,-2.47924707977931,0.602081652890244,9.,         117P    131
-1.87924707977931,0.602081652890244,9.,-1.87924707977931,            117P    132
0.0020816528902437,9.,-1.87924707977931,-0.597918347109756,9.,       117P    133
-2.47924707977931,-0.597918347109756,9.,-3.07924707977931,           117P    134
-0.597918347109756,9.,-3.07924707977931,0.00208165289024363,9.,      117P    135
-3.14159265358979,3.14159265358979,0.,0.,0.;                         117P    136
126,1,1,0,0,1,0,0.,0.,3.5,3.5,1.,1.,-7.47924481519395,               119P    137
-0.00267711302932696,9.,-7.51255617663145,34.9973070348699,9.,       119P    138
0.,3.5,0.,0.,0.;                                                     119P    139
126,1,1,0,0,1,0,0.,0.,0.3,0.3,1.,1.,-7.47924481519395,               121P    140
-0.00267711302932696,9.,-7.47924481519395,-0.00267711302932696,      121P    141
12.,0.,0.3,0.,0.,0.;                                                 121P    142
126,1,1,0,0,1,0,-3.5,-3.5,0.,0.,1.,1.,-7.51255617663145,             123P    143
34.9973070348699,12.,-7.47924481519395,-0.00267711302932696,12.,     123P    144
-3.5,0.,0.,0.,0.;                                                    123P    145
126,1,1,0,0,1,0,0.,0.,0.3,0.3,1.,1.,-7.51255617663145,               125P    146
34.9973070348699,9.,-7.51255617663145,34.9973070348699,12.,0.,       125P    147
0.3,0.,0.,0.;                                                        125P    148
126,1,1,0,0,1,0,0.,0.,1.,1.,1.,1.,-7.51255617663145,                 127P    149
34.9973070348699,9.,2.48743929419691,35.0068245667092,9.,0.,1.,      127P    150
0.,0.,0.;                                                            127P    151
126,1,1,0,0,1,0,-1.,-1.,0.,0.,1.,1.,2.48743929419691,                129P    152
35.0068245667092,12.,-7.51255617663145,34.9973070348699,12.,-1.,     129P    153
0.,0.,0.,0.;                                                         129P    154
126,1,1,0,0,1,0,0.,0.,0.3,0.3,1.,1.,2.48743929419691,                131P    155
35.0068245667092,9.,2.48743929419691,35.0068245667092,12.,0.,        131P    156
0.3,0.,0.,0.;                                                        131P    157
126,1,1,0,0,1,0,0.,0.,3.5,3.5,1.,1.,2.48743929419691,                133P    158
35.0068245667092,9.,2.52075065563487,0.00684041880995245,9.,0.,      133P    159
3.5,0.,0.,0.;                                                        133P    160
126,1,1,0,0,1,0,-3.5,-3.5,0.,0.,1.,1.,2.52075065563487,              135P    161
0.00684041880995245,12.,2.48743929419691,35.0068245667092,12.,       135P    162
-3.5,0.,0.,0.,0.;                                                    135P    163
126,1,1,0,0,1,0,0.,0.,0.3,0.3,1.,1.,2.52075065563487,                137P    164
0.00684041880995245,9.,2.52075065563487,0.00684041880995245,12.,     137P    165
0.,0.3,0.,0.,0.;                                                     137P    166
126,4,2,0,0,0,0,-3.14064090026219,-3.14064090026219,                 139P    167
-3.14064090026219,-1.56984457346728,-1.56984457346728,               139P    168
0.000951753327630227,0.000951753327630227,0.000951753327630227,      139P    169
1.,0.707106781186543,1.,0.707106781186542,1.,-7.47924481519349,      139P    170
-0.00267711302932564,9.,-7.47448604927392,-5.00267484844357,9.,      139P    171
-2.47448831385967,-4.99791608252394,9.,2.52550942155458,             139P    172
-4.9931573166043,9.,2.52075065563487,0.00684041880995245,9.,         139P    173
-3.14064090026219,0.000951753327630227,0.,0.,0.;                     139P    174
126,4,2,0,0,0,0,-3.14064090026219,-3.14064090026219,                 141P    175
-3.14064090026219,-1.56984457346728,-1.56984457346728,               141P    176
0.000951753327630227,0.000951753327630227,0.000951753327630227,      141P    177
1.,0.707106781186543,1.,0.707106781186542,1.,-7.47924481519349,      141P    178
-0.00267711302932564,12.,-7.47448604927392,-5.00267484844357,        141P    179
12.,-2.47448831385967,-4.99791608252394,12.,2.52550942155458,        141P    180
-4.9931573166043,12.,2.52075065563487,0.00684041880995245,12.,       141P    181
-3.14064090026219,0.000951753327630227,0.,0.,0.;                     141P    182
128,1,8,1,2,0,1,0,0,1,0.,0.,1.81818181818182,1.81818181818182,       143P    183
-3.14159265358979,-3.14159265358979,-3.14159265358979,               143P    184
-1.5707963267949,-1.5707963267949,0.,0.,1.5707963267949,             143P    185
1.5707963267949,3.14159265358979,3.14159265358979,                   143P    186
3.14159265358979,1.,1.,0.707106781186548,0.707106781186548,1.,       143P    187
1.,0.707106781186548,0.707106781186548,1.,1.,0.707106781186548,      143P    188
0.707106781186548,1.,1.,0.707106781186548,0.707106781186548,1.,      143P    189
1.,-1.78750000139698,1.14981249755582,4.,-1.78750000139698,          143P    190
1.14981249755582,7.,-1.78750000139698,2.79981249755582,4.,           143P    191
-1.78750000139698,2.79981249755582,7.,-3.43750000139698,             143P    192
2.79981249755582,4.,-3.43750000139698,2.79981249755582,7.,           143P    193
-5.08750000139698,2.79981249755582,4.,-5.08750000139698,             143P    194
2.79981249755582,7.,-5.08750000139698,1.14981249755582,4.,           143P    195
-5.08750000139698,1.14981249755582,7.,-5.08750000139698,             143P    196
-0.500187502444178,4.,-5.08750000139698,-0.500187502444178,7.,       143P    197
-3.43750000139698,-0.500187502444178,4.,-3.43750000139698,           143P    198
-0.500187502444178,7.,-1.78750000139698,-0.500187502444178,4.,       143P    199
-1.78750000139698,-0.500187502444178,7.,-1.78750000139698,           143P    200
1.14981249755582,4.,-1.78750000139698,1.14981249755582,7.,0.,        143P    201
1.81818181818182,-3.14159265358979,3.14159265358979;                 143P    202
128,1,1,1,1,0,0,1,0,0,-0.001,-0.001,1.251,1.251,-0.001,-0.001,       145P    203
0.301,0.301,1.,1.,1.,1.,46.5,-5.1105000102431,3.99,46.5,             145P    204
7.4094999897569,3.99,46.5,-5.1105000102431,7.01,46.5,                145P    205
7.4094999897569,7.01,-0.001,1.251,-0.001,0.301;                      145P    206
128,1,1,1,1,0,0,1,0,0,-0.000999999999999889,                         147P    207
-0.000999999999999889,5.001,5.001,-0.001,-0.001,0.301,0.301,1.,      147P    208
1.,1.,1.,-3.51,-5.10050001024311,3.99,46.51,-5.1005000102431,        147P    209
3.99,-3.51,-5.10050001024311,7.01,46.51,-5.1005000102431,7.01,       147P    210
-0.000999999999999889,5.001,-0.001,0.301;                            147P    211
128,1,1,1,1,0,0,1,0,0,-6.25015597854883D-6,-6.25015597854883D-6,     149P    212
6.87517157640372D-5,6.87517157640372D-5,-0.001,-0.001,0.301,         149P    213
0.301,1.,1.,1.,1.,-3.5,-5.09981249308547,3.99,-3.5,                  149P    214
-5.1005625118029,3.99,-3.5,-5.09981249308547,7.01,-3.5,              149P    215
-5.1005625118029,7.01,-6.25015597854883D-6,6.87517157640372D-5,      149P    216
-0.001,0.301;                                                        149P    217
128,1,4,1,2,0,0,0,0,0,0.,0.,0.48,0.48,-1.56079616034426,             151P    218
-1.56079616034426,-1.56079616034426,0.,0.,1.56079616034426,          151P    219
1.56079616034426,1.56079616034426,1.,1.,0.710633520098962,           151P    220
0.710633520098962,1.,1.,0.710633520098962,0.710633520098962,1.,      151P    221
1.,-3.5,7.3994999897569,7.,-3.5,7.3994999897569,4.,                  151P    222
-9.68750000139698,7.3376218971441,7.,-9.68750000139698,              151P    223
7.3376218971441,4.,-9.68750000139698,1.14981249755582,7.,            151P    224
-9.68750000139698,1.14981249755582,4.,-9.68750000139698,             151P    225
-5.03799690203246,7.,-9.68750000139698,-5.03799690203246,4.,         151P    226
-3.5,-5.09987499464526,7.,-3.5,-5.09987499464526,4.,0.,0.48,         151P    227
-1.56079616034426,1.56079616034426;                                  151P    228
128,1,1,1,1,0,0,1,0,0,-0.001,-0.001,5.001,5.001,-0.001,-0.001,       153P    229
0.301,0.301,1.,1.,1.,1.,46.51,7.3994999897569,3.99,-3.51,            153P    230
7.3994999897569,3.99,46.51,7.3994999897569,7.01,-3.51,               153P    231
7.3994999897569,7.01,-0.001,5.001,-0.001,0.301;                      153P    232
128,1,1,1,1,0,0,1,0,0,-2.81037500006985,-2.81037500006985,           155P    233
2.81037500006985,2.81037500006985,-0.626000000000001,                155P    234
-0.626000000000001,0.626000000000001,0.626000000000001,1.,1.,1.,     155P    235
1.,46.51,7.4094999897569,7.,-9.69750000139698,7.4094999897569,       155P    236
7.,46.51,-5.11050001024311,7.,-9.69750000139698,                     155P    237
-5.11050001024311,7.,-2.81037500006985,2.81037500006985,             155P    238
-0.626000000000001,0.626000000000001;                                155P    239
128,1,1,1,1,0,0,1,0,0,-2.81037500006985,-2.81037500006985,           157P    240
2.81037500006985,2.81037500006985,-0.626000000000001,                157P    241
-0.626000000000001,0.626000000000001,0.626000000000001,1.,1.,1.,     157P    242
1.,-9.69750000139698,7.4094999897569,4.,46.51,7.4094999897569,       157P    243
4.,-9.69750000139698,-5.11050001024311,4.,46.51,                     157P    244
-5.11050001024311,4.,-2.81037500006985,2.81037500006985,             157P    245
-0.626000000000001,0.626000000000001;                                157P    246
128,1,8,1,2,0,1,0,0,1,0.,0.,5.,5.,-3.14159265358979,                 159P    247
-3.14159265358979,-3.14159265358979,-1.5707963267949,                159P    248
-1.5707963267949,0.,0.,1.5707963267949,1.5707963267949,              159P    249
3.14159265358979,3.14159265358979,3.14159265358979,1.,1.,            159P    250
0.707106781186548,0.707106781186548,1.,1.,0.707106781186548,         159P    251
0.707106781186548,1.,1.,0.707106781186548,0.707106781186548,1.,      159P    252
1.,0.707106781186548,0.707106781186548,1.,1.,-3.07924707977931,      159P    253
0.0020816528902437,9.,-3.07924707977931,0.0020816528902437,12.,      159P    254
-3.07924707977931,-0.597918347109756,9.,-3.07924707977931,           159P    255
-0.597918347109756,12.,-2.47924707977931,-0.597918347109756,9.,      159P    256
-2.47924707977931,-0.597918347109756,12.,-1.87924707977931,          159P    257
-0.597918347109756,9.,-1.87924707977931,-0.597918347109756,12.,      159P    258
-1.87924707977931,0.0020816528902437,9.,-1.87924707977931,           159P    259
0.0020816528902437,12.,-1.87924707977931,0.602081652890244,9.,       159P    260
-1.87924707977931,0.602081652890244,12.,-2.47924707977931,           159P    261
0.602081652890244,9.,-2.47924707977931,0.602081652890244,12.,        159P    262
-3.07924707977931,0.602081652890244,9.,-3.07924707977931,            159P    263
0.602081652890244,12.,-3.07924707977931,0.0020816528902437,9.,       159P    264
-3.07924707977931,0.0020816528902437,12.,0.,5.,                      159P    265
-3.14159265358979,3.14159265358979;                                  159P    266
128,1,1,1,1,0,0,1,0,0,-0.001,-0.001,3.501,3.501,-0.001,-0.001,       161P    267
0.301,0.301,1.,1.,1.,1.,-7.51256569416329,35.0073070303408,8.99,     161P    268
-7.47923529766211,-0.0126771085001565,8.99,-7.51256569416329,        161P    269
35.0073070303408,12.01,-7.47923529766211,-0.0126771085001565,        161P    270
12.01,-0.001,3.501,-0.001,0.301;                                     161P    271
128,1,1,1,1,0,0,1,0,0,-0.001,-0.001,1.001,1.001,-0.001,-0.001,       163P    272
0.301,0.301,1.,1.,1.,1.,2.49743928966774,35.0068340842411,8.99,      163P    273
-7.52255617210228,34.9972975173381,8.99,2.49743928966774,            163P    274
35.0068340842411,12.01,-7.52255617210228,34.9972975173381,12.01,     163P    275
-0.001,1.001,-0.001,0.301;                                           163P    276
128,1,1,1,1,0,0,1,0,0,-0.001,-0.001,3.501,3.501,-0.001,-0.001,       165P    277
0.301,0.301,1.,1.,1.,1.,2.52076017316671,-0.00315957666087591,       165P    278
8.99,2.48742977666507,35.0168245621801,8.99,2.52076017316671,        165P    279
-0.00315957666087591,12.01,2.48742977666507,35.0168245621801,        165P    280
12.01,-0.001,3.501,-0.001,0.301;                                     165P    281
128,1,4,1,2,0,0,0,0,0,0.,0.,0.6,0.6,-3.14064090026219,               167P    282
-3.14064090026219,-3.14064090026219,-1.56984457346728,               167P    283
-1.56984457346728,0.000951753327630227,0.000951753327630227,         167P    284
0.000951753327630227,1.,1.,0.707106781186543,0.707106781186543,      167P    285
1.,1.,0.707106781186543,0.707106781186543,1.,1.,                     167P    286
-7.47924481519349,-0.00267711302932564,12.,-7.47924481519349,        167P    287
-0.00267711302932564,9.,-7.47448604927392,-5.00267484844357,12.,     167P    288
-7.47448604927392,-5.00267484844357,9.,-2.47448831385967,            167P    289
-4.99791608252394,12.,-2.47448831385967,-4.99791608252394,9.,        167P    290
2.52550942155458,-4.9931573166043,12.,2.52550942155458,              167P    291
-4.9931573166043,9.,2.52075065563487,0.00684041880995232,12.,        167P    292
2.52075065563487,0.00684041880995232,9.,0.,0.6,                      167P    293
-3.14064090026219,0.000951753327630227;                              167P    294
128,1,1,1,1,0,0,1,0,0,-0.502665454842607,-0.502665454842607,         169P    295
0.503141104975996,0.503141104975996,-2.00171279582433,               169P    296
-2.00171279582433,2.00123714569095,2.00123714569095,1.,1.,1.,1.,     169P    297
-7.52255617663145,-5.01267484844357,12.,2.53550942155458,            169P    298
-5.01267484844357,12.,-7.52255617663145,35.0168245667092,12.,        169P    299
2.53550942155458,35.0168245667092,12.,-0.502665454842607,            169P    300
0.503141104975996,-2.00171279582433,2.00123714569095;                169P    301
128,1,1,1,1,0,0,1,0,0,-0.502665454842607,-0.502665454842607,         171P    302
0.503141104975996,0.503141104975996,-2.00171279582433,               171P    303
-2.00171279582433,2.00123714569095,2.00123714569095,1.,1.,1.,1.,     171P    304
2.53550942155458,-5.01267484844357,9.,-7.52255617663145,             171P    305
-5.01267484844357,9.,2.53550942155458,35.0168245667092,9.,           171P    306
-7.52255617663145,35.0168245667092,9.,-0.502665454842607,            171P    307
0.503141104975996,-2.00171279582433,2.00123714569095;                171P    308
502,12,-1.78750000139698,1.14981249755582,7.,-1.78750000139698,      173P    309
1.14981249755582,4.,46.5,7.3994999897569,4.,46.5,                    173P    310
-5.1005000102431,4.,46.5,7.3994999897569,7.,46.5,                    173P    311
-5.1005000102431,7.,-3.5,-5.10050001024311,4.,-3.5,                  173P    312
-5.10050001024311,7.,-3.5,-5.09987499464526,4.,-3.5,                 173P    313
-5.09987499464526,7.,-3.5,7.3994999897569,4.,-3.5,                   173P    314
7.3994999897569,7.;                                                  173P    315
502,10,-3.07924707977931,0.00208165289024363,12.,                    175P    316
-3.07924707977931,0.00208165289024363,9.,-7.47924481519395,          175P    317
-0.00267711302932696,9.,-7.51255617663145,34.9973070348699,9.,       175P    318
-7.47924481519395,-0.00267711302932696,12.,-7.51255617663145,        175P    319
34.9973070348699,12.,2.48743929419691,35.0068245667092,9.,           175P    320
2.48743929419691,35.0068245667092,12.,2.52075065563487,              175P    321
0.00684041880995245,9.,2.52075065563487,0.00684041880995245,12.;     175P    322
504,18,77,173,1,173,1,79,173,1,173,2,81,173,2,173,2,83,173,3,        177P    323
173,4,85,173,3,173,5,87,173,6,173,5,89,173,4,173,6,91,173,4,173,     177P    324
7,93,173,8,173,6,95,173,7,173,8,97,173,9,173,7,99,173,10,173,8,      177P    325
101,173,9,173,10,103,173,11,173,9,105,173,12,173,10,107,173,11,      177P    326
173,12,109,173,11,173,3,111,173,5,173,12;                            177P    327
504,15,113,175,1,175,1,115,175,1,175,2,117,175,2,175,2,119,175,      179P    328
3,175,4,121,175,3,175,5,123,175,6,175,5,125,175,4,175,6,127,175,     179P    329
4,175,7,129,175,8,175,6,131,175,7,175,8,133,175,7,175,9,135,175,     179P    330
10,175,8,137,175,9,175,10,139,175,3,175,9,141,175,5,175,10;          179P    331
406,1,18HGrande_Aiguille V2;                                         181P    332
406,1,18HPetite_Aiguille V2;                                         183P    333
314,96.4705882352941,96.4705882352941,95.2941176470588,11HABS (W     185P    334
hite);                                                               185P    335
314,62.7450980392157,62.7450980392157,62.7450980392157,13HSteel      187P    336
- Satin;                                                             187P    337
S      1G      3D    188P    337                                        T      1
